<?xml version="1.0" encoding="UTF-8"?>
<svg xmlns="http://www.w3.org/2000/svg" xmlns:xlink="http://www.w3.org/1999/xlink" width="193pt" height="193pt" viewBox="0 0 193 193" version="1.1">
<g id="surface1">
<path style=" stroke:none;fill-rule:evenodd;fill:rgb(100%,100%,100%);fill-opacity:1;" d="M 0 0.242188 L 192.757813 0.242188 L 192.757813 193 L 0 193 L 0 0.242188 "/>
<path style=" stroke:none;fill-rule:evenodd;fill:rgb(0%,0%,0%);fill-opacity:1;" d="M 135.214844 122.179688 C 132.085938 118.003906 130.019531 119.113281 131.921875 125.507813 C 133.933594 132.878906 136.386719 140.632813 138.777344 148.335938 C 142.160156 165.988281 132.433594 188.140625 92.589844 184 C 64.171875 178.785156 51.292969 153.851563 63.375 134.542969 C 74.988281 116.824219 83.730469 130.375 93.40625 95.433594 C 94.347656 90.953125 87.949219 88.855469 83.664063 88.894531 C 65.59375 88.246094 47.015625 79.15625 61.179688 63.691406 C 57.796875 54.949219 66.308594 53.878906 70.503906 60.839844 C 83.769531 56.96875 97.351563 55.304688 111.359375 56.558594 C 115.53125 47.980469 123.171875 51.09375 119.308594 59.410156 C 130.664063 68.730469 125.640625 77.929688 106.695313 86.277344 C 103.664063 87.816406 101.003906 89.554688 100.9375 92.699219 C 101.394531 93.570313 102.117188 94.386719 102.441406 95.3125 C 101.894531 95.953125 101.214844 95.789063 100.664063 96.027344 C 100.933594 100.867188 102.554688 104.53125 106.148438 106.488281 C 112.667969 114.300781 110.660156 121.285156 102.03125 127.167969 C 98.71875 130.503906 99.046875 135.394531 103.40625 143.578125 C 106.179688 150.40625 112.09375 158.605469 117.683594 165.113281 C 120.433594 168.960938 117.042969 171.210938 113.714844 167.257813 C 106.394531 159.003906 99.171875 147.355469 94.632813 138.109375 C 92.703125 136.984375 91.878906 137.460938 92.164063 139.539063 C 97.390625 151.492188 102.867188 160.289063 108.460938 166.640625 C 110.21875 169.253906 108.277344 171.871094 104.863281 168.332031 C 97.074219 159.917969 89.882813 145.3125 87.917969 141.675781 C 82.710938 142.523438 78.585938 145.214844 78.179688 151.1875 C 85.230469 148.835938 89.855469 148.785156 89.148438 153.804688 C 87.308594 158.648438 86.578125 162.53125 86.953125 165.453125 C 87.207031 167.921875 89.492188 169.113281 93.808594 169.019531 C 101.210938 169.683594 106.753906 170.46875 97.648438 172.945313 C 92.714844 173.523438 87.777344 173.679688 82.84375 173.300781 C 79.996094 174.96875 78.496094 176.554688 86.40625 177.578125 C 114.867188 182.535156 125.535156 175.195313 130.832031 163.671875 C 136.878906 148.488281 126.65625 135.140625 125.34375 124.085938 C 124.230469 114.691406 134.070313 111.585938 139.050781 119.089844 C 143.484375 126.378906 139.964844 128.914063 135.214844 122.179688 Z M 99.5625 71.417969 C 101.730469 65.664063 107.339844 63.273438 113.710938 64.328125 C 111.351563 69.777344 105.511719 71.078125 99.5625 71.417969 Z M 86.28125 72.394531 C 82.363281 67.382813 76.210938 66.425781 70.425781 68.960938 C 74.425781 73.636719 80.453125 73.492188 86.28125 72.394531 "/>
<path style=" stroke:none;fill-rule:evenodd;fill:rgb(0%,0%,0%);fill-opacity:1;" d="M 90.25 95.652344 C 85.027344 94.679688 80.441406 93.867188 76.628906 93.199219 C 74.703125 92.726563 72.507813 94 79.078125 96.398438 C 78.214844 96.929688 75.636719 97.640625 78.449219 98.34375 C 81.691406 98.621094 84.5625 98.648438 88.792969 97.664063 C 89.769531 97.535156 91.710938 95.902344 90.25 95.652344 "/>
<path style=" stroke:none;fill-rule:evenodd;fill:rgb(0%,0%,0%);fill-opacity:1;" d="M 107.710938 50.832031 C 107.894531 52.65625 106.75 53.457031 104.277344 53.230469 C 94.746094 52.878906 85.746094 54.347656 77.046875 56.160156 C 74.839844 56.480469 73.605469 55.683594 73.171875 53.953125 C 68.960938 35.722656 62.78125 29.101563 56.789063 24.003906 C 54.234375 26.121094 49.988281 22.929688 52.914063 20.070313 C 49.445313 16.835938 54.09375 14.566406 56.566406 16.902344 C 58.75 14.621094 64.035156 17.785156 60.660156 20.835938 C 64.5 25.988281 68.335938 31.140625 72.175781 36.292969 C 76.105469 40.46875 80.878906 39.382813 82.46875 35.429688 C 86.058594 28.902344 87.148438 22.214844 86.898438 16.710938 C 82.117188 16.289063 83.160156 12.066406 87.007813 12.007813 C 86.730469 7.957031 92.527344 7.476563 93.097656 11.71875 C 96.804688 11.847656 96.621094 16.261719 92.65625 16.421875 C 91.585938 22.660156 92.246094 28.421875 95.3125 33.125 C 98.410156 37.71875 102.589844 36.660156 105.054688 33.316406 C 109.703125 27.332031 114.351563 21.347656 119.003906 15.367188 C 114.789063 12.636719 118.515625 9.515625 122.210938 11.140625 C 123.429688 8.421875 129.148438 10.757813 126.859375 13.925781 C 130.441406 15.652344 126.75 19.652344 122.65625 17.09375 C 120.242188 19.933594 105.449219 43.824219 107.710938 50.832031 "/>
</g>
</svg>
